<?xml version="1.0" encoding="UTF-8" standalone="no"?>
<!-- Created with Inkscape (http://www.inkscape.org/) -->

<svg
   version="1.1"
   id="svg9"
   xml:space="preserve"
   width="461.12"
   height="155.03999"
   viewBox="0 0 461.12 155.03999"
   sodipodi:docname="double_brade.svg"
   inkscape:version="1.1 (c68e22c387, 2021-05-23)"
   xmlns:inkscape="http://www.inkscape.org/namespaces/inkscape"
   xmlns:sodipodi="http://sodipodi.sourceforge.net/DTD/sodipodi-0.dtd"
   xmlns="http://www.w3.org/2000/svg"
   xmlns:svg="http://www.w3.org/2000/svg"><defs
     id="defs13"><clipPath
       clipPathUnits="userSpaceOnUse"
       id="clipPath67"><path
         d="m 684,8.39844 h 282 v 204 H 684 Z"
         id="path65" /></clipPath><clipPath
       clipPathUnits="userSpaceOnUse"
       id="clipPath77"><path
         d="M 684,55.625 H 912.285 V 212.398 H 684 Z"
         clip-rule="evenodd"
         id="path75" /></clipPath></defs><sodipodi:namedview
     id="namedview11"
     pagecolor="#ffffff"
     bordercolor="#666666"
     borderopacity="1.0"
     inkscape:pageshadow="2"
     inkscape:pageopacity="0.0"
     inkscape:pagecheckerboard="0"
     showgrid="false"
     inkscape:zoom="3.7018564"
     inkscape:cx="230.56"
     inkscape:cy="34.172044"
     inkscape:window-width="1920"
     inkscape:window-height="1027"
     inkscape:window-x="1912"
     inkscape:window-y="1120"
     inkscape:window-maximized="1"
     inkscape:current-layer="g15" /><g
     id="g15"
     inkscape:groupmode="layer"
     inkscape:label="double_brade"
     transform="matrix(1.3333333,0,0,-1.3333333,0,155.04)"><g
       id="g17"
       transform="scale(0.1)"><path
         d="M 0,0 H 3458.4 V 1162.8 H 0 Z"
         style="fill:#ffffff;fill-opacity:1;fill-rule:evenodd;stroke:none"
         id="path19" /><path
         d="M 1450.2,622.199 H 3450.7"
         style="fill:none;stroke:#000000;stroke-width:30;stroke-linecap:butt;stroke-linejoin:miter;stroke-miterlimit:10;stroke-dasharray:none;stroke-opacity:1"
         id="path21" /><path
         d="m 1276.8,625.801 c 0,24.847 20.4,45 45.6,45 25.2,0 45.6,-20.153 45.6,-45 0,-24.852 -20.4,-45 -45.6,-45 -25.2,0 -45.6,20.148 -45.6,45"
         style="fill:#ffffff;fill-opacity:1;fill-rule:evenodd;stroke:none"
         id="path23" /><path
         d="m 1276.8,625.801 c 0,24.847 20.4,45 45.6,45 25.2,0 45.6,-20.153 45.6,-45 0,-24.852 -20.4,-45 -45.6,-45 -25.2,0 -45.6,20.148 -45.6,45 z"
         style="fill:none;stroke:#000000;stroke-width:9.6;stroke-linecap:butt;stroke-linejoin:miter;stroke-miterlimit:10;stroke-dasharray:none;stroke-opacity:1"
         id="path25" /><path
         d="m 1363.4,585.109 c 381.2,-5.711 816,49.75 1279.1,215.09"
         style="fill:none;stroke:#000000;stroke-width:10;stroke-linecap:round;stroke-linejoin:miter;stroke-miterlimit:10;stroke-dasharray:70, 40, 0, 40;stroke-dashoffset:0;stroke-opacity:1"
         id="path27" /><path
         d="m 1613.2,703.211 -51.5,-8.902 c -19.4,-13.11 -40,-69.629 37.5,-76.809 77.5,-7.191 169.2,-16.238 292.5,-33.73 123.4,-17.481 232.5,-44.34 372.5,-71.192 140,-26.859 263.4,-83.379 347.5,-104.918 l 28.4,-3.621 c 58.7,1.223 64.6,65.063 9.1,84.18 -63.4,21.859 -99,39.351 -193.1,65.582 -94.1,26.23 -247.8,68.07 -371.3,91.801 -123.4,23.726 -282.1,42.468 -369.3,50.589 -43.6,4.047 -77.2,6.868 -102.3,7.02 z M 154.75,861.602 c 207.609,-9.723 756.301,-58.723 1101.55,-88.454 323.3,-29.968 714.2,-26.019 969.8,-89.929 255.6,-63.91 599.2,-169.328 563.8,-293.52 -35.5,-124.187 -634.9,51.09 -881.7,72.973 -246.8,21.867 -482.3,33.269 -599,58.269 -67.8,16.008 -59.3,36.571 -101.1,91.758 C 991.039,595.32 433.078,651.602 15.6016,811.488 L 154.75,861.602"
         style="fill:#595959;fill-opacity:1;fill-rule:evenodd;stroke:none"
         id="path29" /><path
         d="m 1613.2,703.211 -51.5,-8.902 c -19.4,-13.11 -40,-69.629 37.5,-76.809 77.5,-7.191 169.2,-16.238 292.5,-33.73 123.4,-17.481 232.5,-44.34 372.5,-71.192 140,-26.859 263.4,-83.379 347.5,-104.918 l 28.4,-3.621 c 58.7,1.223 64.6,65.063 9.1,84.18 -63.4,21.859 -99,39.351 -193.1,65.582 -94.1,26.23 -247.8,68.07 -371.3,91.801 -123.4,23.726 -282.1,42.468 -369.3,50.589 -43.6,4.047 -77.2,6.868 -102.3,7.02 z M 154.75,861.602 c 207.609,-9.723 756.301,-58.723 1101.55,-88.454 323.3,-29.968 714.2,-26.019 969.8,-89.929 255.6,-63.91 599.2,-169.328 563.8,-293.52 -35.5,-124.187 -634.9,51.09 -881.7,72.973 -246.8,21.867 -482.3,33.269 -599,58.269 -67.8,16.008 -59.3,36.571 -101.1,91.758 C 991.039,595.32 433.078,651.602 15.6016,811.488 Z"
         style="fill:none;stroke:#000000;stroke-width:9.6;stroke-linecap:butt;stroke-linejoin:miter;stroke-miterlimit:10;stroke-dasharray:none;stroke-opacity:1"
         id="path31" /><path
         d="m 1905.6,625.801 c 0,-24.852 20.4,-45 45.6,-45 25.2,0 45.6,20.148 45.6,45 0,24.847 -20.4,45 -45.6,45 -25.2,0 -45.6,-20.153 -45.6,-45"
         style="fill:#ffffff;fill-opacity:1;fill-rule:evenodd;stroke:none"
         id="path33" /><path
         d="m 1905.6,625.801 c 0,-24.852 20.4,-45 45.6,-45 25.2,0 45.6,20.148 45.6,45 0,24.847 -20.4,45 -45.6,45 -25.2,0 -45.6,-20.153 -45.6,-45 z"
         style="fill:none;stroke:#000000;stroke-width:9.6;stroke-linecap:butt;stroke-linejoin:miter;stroke-miterlimit:10;stroke-dasharray:none;stroke-opacity:1"
         id="path35" /><path
         d="m 1395.1,653.09 c 381.3,5.711 816,-49.75 1279.1,-215.078"
         style="fill:none;stroke:#000000;stroke-width:10;stroke-linecap:round;stroke-linejoin:miter;stroke-miterlimit:10;stroke-dasharray:70, 40, 0, 40;stroke-dashoffset:0;stroke-opacity:1"
         id="path37" /><path
         d="M 273,960.602 C 198.328,881.77 185.27,776.66 172.199,667.801"
         style="fill:none;stroke:#ffffff;stroke-width:30;stroke-linecap:butt;stroke-linejoin:miter;stroke-miterlimit:10;stroke-dasharray:none;stroke-opacity:1"
         id="path39" /><path
         d="m 1613.2,543.59 -51.5,8.898 c -19.4,13.114 -40,69.633 37.5,76.813 77.5,7.187 169.2,16.238 292.5,33.73 123.4,17.481 232.5,44.34 372.5,71.188 140,26.859 263.4,83.383 347.5,104.922 l 28.4,3.621 c 58.7,-1.223 64.6,-65.063 9.1,-84.184 -63.4,-21.859 -99,-39.348 -193.1,-65.578 -94.1,-26.23 -247.8,-68.07 -371.3,-91.801 -123.4,-23.73 -282.1,-42.469 -369.3,-50.578 -43.6,-4.062 -77.2,-6.883 -102.3,-7.031 z M 154.75,385.199 c 207.609,9.723 756.301,58.723 1101.55,88.449 323.3,29.973 714.2,26.024 969.8,89.93 255.6,63.91 599.2,169.332 563.8,293.524 -35.5,124.187 -634.9,-51.09 -881.7,-72.973 -246.8,-21.867 -482.3,-33.27 -599,-58.27 -67.8,-16.007 -59.3,-36.57 -101.1,-91.757 C 991.039,651.48 433.078,595.199 15.6016,435.309 L 154.75,385.199"
         style="fill:#595959;fill-opacity:1;fill-rule:evenodd;stroke:none"
         id="path41" /><path
         d="m 1613.2,543.59 -51.5,8.898 c -19.4,13.114 -40,69.633 37.5,76.813 77.5,7.187 169.2,16.238 292.5,33.73 123.4,17.481 232.5,44.34 372.5,71.188 140,26.859 263.4,83.383 347.5,104.922 l 28.4,3.621 c 58.7,-1.223 64.6,-65.063 9.1,-84.184 -63.4,-21.859 -99,-39.348 -193.1,-65.578 -94.1,-26.23 -247.8,-68.07 -371.3,-91.801 -123.4,-23.73 -282.1,-42.469 -369.3,-50.578 -43.6,-4.062 -77.2,-6.883 -102.3,-7.031 z M 154.75,385.199 c 207.609,9.723 756.301,58.723 1101.55,88.449 323.3,29.973 714.2,26.024 969.8,89.93 255.6,63.91 599.2,169.332 563.8,293.524 -35.5,124.187 -634.9,-51.09 -881.7,-72.973 -246.8,-21.867 -482.3,-33.27 -599,-58.27 -67.8,-16.007 -59.3,-36.57 -101.1,-91.757 C 991.039,651.48 433.078,595.199 15.6016,435.309 Z"
         style="fill:none;stroke:#000000;stroke-width:9.6;stroke-linecap:butt;stroke-linejoin:miter;stroke-miterlimit:10;stroke-dasharray:none;stroke-opacity:1"
         id="path43" /><path
         d="m 1275.6,625.801 c 0,24.847 20.4,45 45.6,45 25.2,0 45.6,-20.153 45.6,-45 0,-24.852 -20.4,-45 -45.6,-45 -25.2,0 -45.6,20.148 -45.6,45"
         style="fill:#ffffff;fill-opacity:1;fill-rule:evenodd;stroke:none"
         id="path45" /><path
         d="m 1275.6,625.801 c 0,24.847 20.4,45 45.6,45 25.2,0 45.6,-20.153 45.6,-45 0,-24.852 -20.4,-45 -45.6,-45 -25.2,0 -45.6,20.148 -45.6,45 z"
         style="fill:none;stroke:#000000;stroke-width:9.6;stroke-linecap:butt;stroke-linejoin:miter;stroke-miterlimit:10;stroke-dasharray:none;stroke-opacity:1"
         id="path47" /><path
         d="m 1977.6,658.199 h 438 v 36.602 l 73.2,-73.199 -73.2,-73.204 V 585 h -438"
         style="fill:#ffffff;fill-opacity:0.85098;fill-rule:evenodd;stroke:none"
         id="path49" /><path
         d="m 1977.6,658.199 h 438 v 36.602 l 73.2,-73.199 -73.2,-73.204 V 585 h -438 z"
         style="fill:none;stroke:#000000;stroke-width:9.6;stroke-linecap:butt;stroke-linejoin:miter;stroke-miterlimit:10;stroke-dasharray:none;stroke-opacity:1"
         id="path51" /><path
         d="M 17.2813,440.77 C 414.121,572.969 893.059,649.121 1212.4,635.23 l -25.6,-34.96 C 828.941,611.828 475.148,528.531 67.3008,424.391 L 17.2813,440.77"
         style="fill:#f2f2f2;fill-opacity:1;fill-rule:evenodd;stroke:none"
         id="path53" /><path
         d="M 464.398,685.199 C 448.031,629.051 444.25,625.012 460.211,567.602"
         style="fill:none;stroke:#000000;stroke-width:9.6;stroke-linecap:butt;stroke-linejoin:miter;stroke-miterlimit:10;stroke-dasharray:none;stroke-opacity:1"
         id="path55" /><path
         d="M 460.199,627 C 644.07,501.172 411.109,647.828 647.398,117"
         style="fill:none;stroke:#ffffff;stroke-width:30;stroke-linecap:butt;stroke-linejoin:miter;stroke-miterlimit:10;stroke-dasharray:none;stroke-opacity:1"
         id="path57" /><path
         d="m 462.441,631.719 23.18,-15.989 6.707,-4.671 6.121,-4.379 5.582,-4.071 5.149,-3.789 4.672,-3.601 8.007,-6.481 6.563,-5.847 5.156,-5.493 3.844,-5.257 2.797,-5.25 1.621,-5.411 0.609,-5.41 -0.078,-5.511 -0.641,-5.75 -0.992,-6.278 -1.129,-6.91 0.02,0.098 -1.129,-7.949 0.02,0.179 -0.969,-9.148 0.019,0.238 -0.601,-10.5 v 0.191 l -0.219,-12 v 0.211 l 0.148,-6.601 v 0.101 l 0.301,-7.132 -0.008,0.14 0.52,-7.578 -0.012,0.117 0.75,-8.019 -0.008,0.101 0.981,-8.55 -0.024,0.121 1.282,-9.153 -0.008,0.082 1.5,-9.679 -0.031,0.14 1.879,-10.203 -0.008,0.043 2.097,-10.871 -0.031,0.141 2.551,-11.403 -0.008,0.051 2.848,-12.148 -0.02,0.089 3.223,-12.75 -0.024,0.09 3.672,-13.422 -0.011,0.051 4.05,-14.179 -0.019,0.07 4.5,-14.918 -0.02,0.058 4.95,-15.671 -0.032,0.07 5.481,-16.418 -0.02,0.051 5.93,-17.184 -0.027,0.07 6.527,-18.078 -0.02,0.051 7.051,-18.902 -0.019,0.051 7.578,-19.731 -0.02,0.051 8.172,-20.621 -0.012,0.043 8.77,-21.524 -0.02,0.051 9.45,-22.418 -0.02,0.027 10.051,-23.398 -0.012,0.039 10.723,-24.379 -9.153,-4.019 -10.738,24.39 -10.058,23.438 -9.473,22.472 -8.789,21.571 -8.199,20.668 -7.59,19.781 -7.071,18.937 -6.55,18.141 -5.942,17.231 -5.5,16.492 -4.968,15.738 -4.52,14.988 -4.07,14.242 -3.692,13.5 -3.25,12.84 -2.859,12.211 -2.578,11.5 -2.11,10.969 -1.902,10.289 -1.508,9.781 -1.293,9.25 -0.988,8.66 -0.762,8.141 -0.527,7.699 -0.313,7.239 -0.148,6.761 0.23,12.192 0.61,10.718 1,9.36 1.14,8.09 1.141,6.949 -0.012,-0.02 0.981,6.153 -0.031,-0.231 0.601,5.399 -0.031,-0.481 0.07,4.949 0.031,-0.636 -0.519,4.648 0.18,-0.871 -1.352,4.5 0.371,-0.918 -2.398,4.5 0.379,-0.59 -3.45,4.719 0.387,-0.48 -4.797,5.101 0.309,-0.301 -6.301,5.629 0.191,-0.16 -7.878,6.371 0.097,-0.07 -4.578,3.519 0.09,-0.058 -5.102,3.75 0.02,-0.012 -5.551,4.051 0.031,-0.031 -6.07,4.351 0.051,-0.039 -6.668,4.649 0.019,-0.008 -23.179,15.968 z M 448.27,611.121 c -9.098,6.25 -11.411,18.699 -5.149,27.809 6.25,9.101 18.699,11.41 27.809,5.148 9.101,-6.25 11.41,-18.699 5.148,-27.808 -6.25,-9.098 -18.699,-11.411 -27.808,-5.149"
         style="fill:#000000;fill-opacity:1;fill-rule:nonzero;stroke:none"
         id="path59" /><g
         id="g61"><g
           id="g63"
           clip-path="url(#clipPath67)"><path
             d="m 697.918,104.727 17.559,18.238 c 25.843,23.848 35.785,33.316 35.785,50.855 0,19.989 -14.91,34.016 -35.121,34.016 -18.887,0 -30.817,-16.133 -30.817,-31.563 0,-9.82 7.953,-9.82 8.617,-9.82 2.649,0 8.614,2.106 8.614,9.117 0,4.559 -2.981,9.121 -8.946,9.121 -1.324,0 -1.656,0 -1.988,0 3.645,11.223 12.59,17.887 22.199,17.887 15.243,0 22.2,-14.383 22.2,-28.758 0,-14.031 -8.282,-27.707 -17.227,-38.582 L 686.98,97.7148 c -1.656,-1.7578 -1.656,-2.1054 -1.656,-6.3164 h 61.301 l 4.637,30.5156 h -4.309 c -0.66,-5.262 -1.988,-12.976 -3.644,-15.785 -0.993,-1.402 -11.93,-1.402 -15.571,-1.402 h -29.82"
             style="fill:#000000;fill-opacity:1;fill-rule:nonzero;stroke:none"
             id="path69" /></g></g><g
         id="g71"><g
           id="g73"
           clip-path="url(#clipPath77)"><path
             d="m 831.777,208.539 c 0,0.352 0.332,2.457 0.332,2.457 0,0.34 0,1.742 -1.988,1.742 -1.656,0 -1.656,-0.34 -2.32,-3.508 l -9.61,-40.324 C 792.016,167.855 767.5,144.707 767.5,120.859 c 0,-16.484 11.594,-30.5113 31.805,-31.5621 -1.325,-5.6133 -2.317,-11.2266 -3.641,-16.4844 -1.988,-8.418 -3.648,-15.082 -3.648,-15.4336 0,-1.7539 0.996,-2.1055 1.988,-2.1055 0.664,0 0.996,0.3516 1.66,0.7032 0.328,0.3515 1.324,4.5586 1.656,7.0156 l 6.293,26.3047 c 26.508,0.6992 50.696,24.5511 50.696,48.0471 0,13.676 -8.946,29.808 -31.809,31.562 z M 800.301,93.1523 c -9.942,0.3516 -21.867,6.6641 -21.867,24.1997 0,20.695 14.246,45.242 38.765,47.699 z m 21.207,71.8987 c 12.59,-0.703 21.867,-8.77 21.867,-24.199 0,-20.692 -14.25,-45.5942 -38.766,-47.6997 l 16.899,71.8987"
             style="fill:#000000;fill-opacity:1;fill-rule:nonzero;stroke:none"
             id="path79" /><path
             d="m 888.445,146.461 0.321,1.754 c 0,0.703 -0.321,1.754 -1.661,1.754 -2.32,0 -11.921,-1.051 -14.902,-1.051 -0.996,-0.352 -2.652,-0.352 -2.652,-2.805 0,-1.754 1.656,-1.754 2.984,-1.754 5.629,0 5.629,-1.054 5.629,-1.757 0,-1.051 -0.992,-5.961 -1.656,-8.766 l -2.653,-11.223 c -1.32,-4.211 -7.617,-30.863 -7.617,-32.6169 -0.664,-2.8047 -0.664,-4.5586 -0.664,-5.9609 0,-12.2774 7.289,-19.9922 16.899,-19.9922 14.574,0 29.812,16.4843 29.812,34.7226 0,14.0274 -9.262,20.3394 -17.219,20.3394 -5.961,0 -11.269,-3.507 -14.582,-6.664 z m -5.64,-79.2618 c -5.965,0 -8.95,5.2617 -8.95,12.625 0,4.5625 0.997,8.7696 4.309,22.4458 0.664,2.457 0.664,2.457 2.652,5.261 4.629,5.262 9.61,8.067 13.911,8.067 4.32,0 8.296,-3.508 8.296,-11.922 0,-4.9104 -2.316,-17.5393 -5.976,-24.551 -2.641,-5.9609 -8.602,-11.9258 -14.242,-11.9258"
             style="fill:#000000;fill-opacity:1;fill-rule:nonzero;stroke:none"
             id="path81" /></g></g><path
         d="m 2565.34,159.078 h -39.65 v -2.672 c 10.26,-0.703 11.95,-2.531 12.23,-12.656 V 81.3281 c -0.28,-10.125 -2.11,-12.0937 -12.23,-12.6562 V 66 h 75.64 l 6.75,24.4688 h -3.52 c -6.61,-14.7657 -12.65,-18.4219 -30.79,-18.9844 h -9.41 c -10.83,0.2812 -11.95,0.7031 -12.09,5.7656 v 66.5 c 0.28,10.266 2.11,12.094 13.07,12.656 v 2.672"
         style="fill:#000000;fill-opacity:1;fill-rule:nonzero;stroke:none"
         id="path83" /><path
         d="m 2611.25,66 h 33.33 v 2.1094 c -9.28,0.7031 -10.27,1.9687 -10.41,12.2344 V 130.25 l -0.56,0.422 -21.8,-7.734 v -2.11 l 1.13,0.141 c 1.69,0.281 3.37,0.422 4.78,0.422 3.37,0 4.64,-2.25 4.64,-8.438 V 80.3438 c -0.28,-10.4063 -1.55,-11.8125 -11.11,-12.2344 z m 15.75,96.031 c -3.8,0 -7.03,-3.234 -7.03,-7.172 0,-4.078 3.09,-7.171 7.03,-7.171 4.22,0 7.31,3.093 7.31,7.171 0,4.079 -3.23,7.172 -7.31,7.172"
         style="fill:#000000;fill-opacity:1;fill-rule:nonzero;stroke:none"
         id="path85" /><path
         d="m 2651.53,66 h 29.81 v 2.1094 c -7.03,0.4219 -9.28,2.25 -9.28,7.3125 v 39.5001 c 6.75,6.328 9.85,8.016 14.49,8.016 6.87,0 10.25,-4.36 10.25,-13.625 V 79.9219 c -0.28,-9.1406 -1.97,-11.3906 -8.85,-11.8125 V 66 h 29.24 v 2.1094 c -6.89,0.7031 -8.44,2.3906 -8.58,9.2812 v 32.2034 c 0,13.203 -6.19,21.078 -16.58,21.078 -6.47,0 -10.83,-2.391 -20.39,-11.391 v 11.11 l -0.98,0.281 c -7.32,-2.672 -12.1,-4.219 -19.41,-6.328 v -2.391 c 0.98,0.422 2.25,0.563 3.8,0.563 3.93,0 5.2,-2.11 5.2,-9 V 78.6563 c -0.14,-8.2969 -1.69,-10.125 -8.72,-10.5469 V 66"
         style="fill:#000000;fill-opacity:1;fill-rule:nonzero;stroke:none"
         id="path87" /><path
         d="m 2776.36,89.0625 c -6.75,-10.6875 -12.8,-14.7656 -21.78,-14.7656 -8.02,0 -14.06,4.0781 -18.14,12.0937 -2.53,5.3438 -3.52,9.8438 -3.8,18.5624 h 43.3 c -1.13,9.125 -2.53,13.203 -6.05,17.703 -4.22,5.063 -10.67,8.016 -17.98,8.016 -7.03,0 -13.64,-2.531 -18.99,-7.313 -6.61,-5.765 -10.4,-15.734 -10.4,-27.2652 0,-19.4063 10.12,-31.5 26.29,-31.5 13.36,0 23.89,8.2968 29.8,23.4843 z m -43.44,20.3905 c 1.55,10.953 6.33,16.156 14.91,16.156 8.58,0 11.95,-3.937 13.78,-16.156 h -28.69"
         style="fill:#000000;fill-opacity:1;fill-rule:nonzero;stroke:none"
         id="path89" /><path
         d="m 2844.14,75.2813 c -2.39,-1.9688 -4.08,-2.6719 -6.19,-2.6719 -3.23,0 -4.22,1.9687 -4.22,8.1562 v 27.4224 c 0,7.296 -0.7,11.375 -2.81,14.75 -3.09,5.062 -9.12,7.734 -17.42,7.734 -13.22,0 -23.62,-6.891 -23.62,-15.75 0,-3.234 2.67,-6.031 6.04,-6.031 3.38,0 6.33,2.797 6.33,5.89 0,0.563 -0.14,1.266 -0.28,2.25 -0.28,1.266 -0.42,2.391 -0.42,3.375 0,3.797 4.5,6.891 10.12,6.891 6.89,0 10.69,-4.078 10.69,-11.672 v -8.562 c -21.52,-8.5786 -24.05,-9.8442 -30.09,-15.188 -3.1,-2.8125 -5.07,-7.5937 -5.07,-12.2344 0,-8.8593 6.19,-15.0468 14.77,-15.0468 6.19,0 11.95,2.9531 20.53,10.2656 0.7,-7.4531 3.23,-10.2656 8.98,-10.2656 4.79,0 7.74,1.6875 12.66,7.0312 z m -21.78,8.0156 c 0,-4.2188 -0.7,-5.7656 -3.66,-7.4531 -3.51,-1.9688 -7.31,-3.0938 -10.26,-3.0938 -4.92,0 -8.86,4.7813 -8.86,10.8281 v 0.5625 c 0.14,8.4375 6.33,13.7813 22.78,19.5474 V 83.2969"
         style="fill:#000000;fill-opacity:1;fill-rule:nonzero;stroke:none"
         id="path91" /><path
         d="m 2844.7,66 h 33.75 v 2.1094 c -9.42,0.2812 -11.67,2.25 -11.95,10.5469 v 31.6407 c 0,4.484 5.91,11.516 9.84,11.516 0.85,0 2.11,-0.704 3.66,-2.11 2.11,-2.109 3.8,-2.812 5.63,-2.812 3.35,0 5.46,2.39 5.46,6.328 0,4.64 -2.93,7.453 -7.71,7.453 -5.91,0 -9.85,-3.094 -16.88,-13.219 v 12.938 l -0.7,0.281 c -7.88,-3.094 -12.94,-5.063 -20.82,-7.594 v -2.25 c 1.97,0.422 3.24,0.563 4.93,0.563 3.51,0 4.78,-2.25 4.78,-8.438 V 77.8125 c -0.28,-7.3125 -1.13,-8.1562 -9.99,-9.7031 V 66"
         style="fill:#000000;fill-opacity:1;fill-rule:nonzero;stroke:none"
         id="path93" /><path
         d="m 2967.3,110.156 -0.57,19.25 h -1.54 c -0.71,-1.125 -1.41,-1.547 -2.25,-1.547 -0.85,0 -2.25,0.282 -3.8,0.985 -3.23,1.125 -6.47,1.828 -9.84,1.828 -11.11,0 -19.13,-7.313 -19.13,-17.438 0,-7.859 4.5,-13.484 16.46,-20.234 l 8.15,-4.6406 c 4.92,-2.8125 7.31,-6.1875 7.31,-10.5469 0,-6.1875 -4.5,-10.125 -11.67,-10.125 -9.7,0 -14.62,5.3438 -17.86,19.6875 h -2.25 V 65.4375 h 1.83 c 0.99,1.4063 1.55,1.6875 3.24,1.6875 1.54,0 3.23,-0.2812 6.46,-1.125 3.8,-0.8437 7.46,-1.4062 10.27,-1.4062 10.97,0 19.81,8.1562 19.81,18 0,7.0312 -3.37,11.6718 -11.79,16.7343 l -15.19,8.9999 c -3.94,2.375 -6.05,5.75 -6.05,9.547 0,5.766 4.36,9.563 10.83,9.563 8.01,0 12.23,-4.641 15.47,-17.282 h 2.11"
         style="fill:#000000;fill-opacity:1;fill-rule:nonzero;stroke:none"
         id="path95" /><path
         d="m 2980.95,66 h 33.19 v 2.1094 c -8.86,0.4219 -10.41,1.8281 -10.55,9.7031 V 161.75 l -0.56,0.281 c -7.17,-2.25 -12.37,-3.797 -22.36,-6.187 v -2.25 h 0.85 c 1.54,0.14 3.23,0.281 4.36,0.281 4.5,0 5.9,-1.969 5.9,-8.578 V 78.2344 c -0.14,-7.5938 -2.11,-9.5625 -10.83,-10.125 V 66"
         style="fill:#000000;fill-opacity:1;fill-rule:nonzero;stroke:none"
         id="path97" /><path
         d="m 3020.25,66 h 33.33 v 2.1094 c -9.28,0.7031 -10.27,1.9687 -10.41,12.2344 V 130.25 l -0.56,0.422 -21.8,-7.734 v -2.11 l 1.13,0.141 c 1.69,0.281 3.37,0.422 4.78,0.422 3.37,0 4.64,-2.25 4.64,-8.438 V 80.3438 c -0.28,-10.4063 -1.55,-11.8125 -11.11,-12.2344 z m 15.75,96.031 c -3.8,0 -7.03,-3.234 -7.03,-7.172 0,-4.078 3.09,-7.171 7.03,-7.171 4.22,0 7.31,3.093 7.31,7.171 0,4.079 -3.23,7.172 -7.31,7.172"
         style="fill:#000000;fill-opacity:1;fill-rule:nonzero;stroke:none"
         id="path99" /><path
         d="m 3126.03,74.1563 c -1.83,-0.1407 -2.67,-0.1407 -3.23,-0.1407 -4.92,0 -6.19,1.5469 -6.19,8.0157 V 161.75 l -0.7,0.281 c -6.61,-2.25 -11.39,-3.797 -20.66,-6.187 v -2.25 c 1.13,0.14 1.83,0.14 3.09,0.14 5.19,0 6.46,-1.406 6.46,-7.171 v -21.938 c -5.33,4.5 -9.13,6.047 -14.75,6.047 -16.17,0 -29.25,-15.891 -29.25,-35.8439 0,-18 10.4,-30.2343 26.01,-30.2343 7.88,0 13.22,2.8125 17.99,9.4218 v -9 l 0.56,-0.4218 20.67,7.3125 z m -21.23,6.1875 c 0,-0.9844 -0.99,-2.6719 -2.39,-4.2188 -2.38,-2.8125 -6.03,-4.2187 -10.11,-4.2187 -11.82,0 -19.41,11.25 -19.41,28.6877 0,15.734 6.89,26.14 17.58,26.14 7.59,0 14.33,-6.609 14.33,-14.062 V 80.3438"
         style="fill:#000000;fill-opacity:1;fill-rule:nonzero;stroke:none"
         id="path101" /><path
         d="m 3185.36,89.0625 c -6.75,-10.6875 -12.8,-14.7656 -21.78,-14.7656 -8.02,0 -14.06,4.0781 -18.14,12.0937 -2.53,5.3438 -3.52,9.8438 -3.8,18.5624 h 43.3 c -1.13,9.125 -2.53,13.203 -6.05,17.703 -4.22,5.063 -10.67,8.016 -17.98,8.016 -7.03,0 -13.64,-2.531 -18.99,-7.313 -6.61,-5.765 -10.4,-15.734 -10.4,-27.2652 0,-19.4063 10.12,-31.5 26.29,-31.5 13.36,0 23.89,8.2968 29.8,23.4843 z m -43.44,20.3905 c 1.55,10.953 6.33,16.156 14.91,16.156 8.58,0 11.95,-3.937 13.78,-16.156 h -28.69"
         style="fill:#000000;fill-opacity:1;fill-rule:nonzero;stroke:none"
         id="path103" /><path
         d="m 3190.7,66 h 33.75 v 2.1094 c -9.42,0.2812 -11.67,2.25 -11.95,10.5469 v 31.6407 c 0,4.484 5.91,11.516 9.84,11.516 0.85,0 2.11,-0.704 3.66,-2.11 2.11,-2.109 3.8,-2.812 5.63,-2.812 3.35,0 5.46,2.39 5.46,6.328 0,4.64 -2.93,7.453 -7.71,7.453 -5.91,0 -9.85,-3.094 -16.88,-13.219 v 12.938 l -0.7,0.281 c -7.88,-3.094 -12.94,-5.063 -20.82,-7.594 v -2.25 c 1.97,0.422 3.24,0.563 4.93,0.563 3.51,0 4.78,-2.25 4.78,-8.438 V 77.8125 c -0.28,-7.3125 -1.13,-8.1562 -9.99,-9.7031 V 66"
         style="fill:#000000;fill-opacity:1;fill-rule:nonzero;stroke:none"
         id="path105" /><path
         d="m 1620.27,1021.67 c -6.33,0.42 -7.74,1.83 -12.66,12.24 l -35.02,79.86 h -2.81 l -29.23,-69.04 c -9,-20.53 -10.69,-22.78 -17.44,-23.06 V 1019 h 27.84 v 2.67 c -6.75,0 -9.56,1.69 -9.56,5.77 0,1.69 0.42,3.65 1.13,5.48 l 6.46,16.46 h 36.83 l 5.77,-13.5 c 1.69,-3.8 2.67,-7.46 2.67,-9.43 0,-3.51 -2.39,-4.64 -9.84,-4.78 V 1019 h 35.86 z m -68.89,33.47 16.15,38.66 16.31,-38.66 z"
         style="fill:#000000;fill-opacity:1;fill-rule:nonzero;stroke:none"
         id="path107" /><path
         d="m 1691.03,1027.16 c -1.83,-0.14 -2.67,-0.14 -3.23,-0.14 -4.92,0 -6.19,1.54 -6.19,8.01 v 79.72 l -0.7,0.28 c -6.61,-2.25 -11.39,-3.8 -20.66,-6.19 v -2.25 c 1.13,0.14 1.83,0.14 3.09,0.14 5.19,0 6.46,-1.4 6.46,-7.17 v -21.93 c -5.33,4.5 -9.13,6.04 -14.75,6.04 -16.17,0 -29.25,-15.89 -29.25,-35.84 0,-18 10.4,-30.24 26.01,-30.24 7.88,0 13.22,2.82 17.99,9.43 v -9 l 0.56,-0.43 20.67,7.32 z m -21.23,6.18 c 0,-0.98 -0.99,-2.67 -2.39,-4.21 -2.38,-2.82 -6.03,-4.22 -10.11,-4.22 -11.82,0 -19.41,11.25 -19.41,28.68 0,15.74 6.89,26.14 17.58,26.14 7.59,0 14.33,-6.6 14.33,-14.06 v -32.33"
         style="fill:#000000;fill-opacity:1;fill-rule:nonzero;stroke:none"
         id="path109" /><path
         d="m 1762.03,1027.16 c -1.83,-0.14 -2.67,-0.14 -3.23,-0.14 -4.92,0 -6.19,1.54 -6.19,8.01 v 79.72 l -0.7,0.28 c -6.61,-2.25 -11.39,-3.8 -20.66,-6.19 v -2.25 c 1.13,0.14 1.83,0.14 3.09,0.14 5.19,0 6.46,-1.4 6.46,-7.17 v -21.93 c -5.33,4.5 -9.13,6.04 -14.75,6.04 -16.17,0 -29.25,-15.89 -29.25,-35.84 0,-18 10.4,-30.24 26.01,-30.24 7.88,0 13.22,2.82 17.99,9.43 v -9 l 0.56,-0.43 20.67,7.32 z m -21.23,6.18 c 0,-0.98 -0.99,-2.67 -2.39,-4.21 -2.38,-2.82 -6.03,-4.22 -10.11,-4.22 -11.82,0 -19.41,11.25 -19.41,28.68 0,15.74 6.89,26.14 17.58,26.14 7.59,0 14.33,-6.6 14.33,-14.06 v -32.33"
         style="fill:#000000;fill-opacity:1;fill-rule:nonzero;stroke:none"
         id="path111" /><path
         d="m 1765.25,1019 h 33.33 v 2.11 c -9.28,0.7 -10.27,1.97 -10.41,12.23 v 49.91 l -0.56,0.42 -21.8,-7.73 v -2.11 l 1.13,0.14 c 1.69,0.28 3.37,0.42 4.78,0.42 3.37,0 4.64,-2.25 4.64,-8.44 v -32.61 c -0.28,-10.4 -1.55,-11.81 -11.11,-12.23 z m 15.75,96.03 c -3.8,0 -7.03,-3.23 -7.03,-7.17 0,-4.08 3.09,-7.17 7.03,-7.17 4.22,0 7.31,3.09 7.31,7.17 0,4.08 -3.23,7.17 -7.31,7.17"
         style="fill:#000000;fill-opacity:1;fill-rule:nonzero;stroke:none"
         id="path113" /><path
         d="m 1838.86,1082.27 h -14.2 v 16.31 c 0,1.4 -0.28,1.83 -0.99,1.83 -8.15,-11.82 -12.37,-16.6 -16.45,-18.99 -1.55,-0.98 -2.39,-1.83 -2.39,-2.67 0,-0.42 0.14,-0.7 0.56,-0.98 h 7.45 v -42.32 c 0,-11.81 4.22,-17.86 12.52,-17.86 6.89,0 12.23,3.38 16.87,10.69 l -1.82,1.55 c -3.1,-3.66 -5.35,-4.92 -8.44,-4.92 -5.2,0 -7.31,3.79 -7.31,12.65 v 40.21 h 14.2 v 4.5"
         style="fill:#000000;fill-opacity:1;fill-rule:nonzero;stroke:none"
         id="path115" /><path
         d="m 1844.25,1019 h 33.33 v 2.11 c -9.28,0.7 -10.27,1.97 -10.41,12.23 v 49.91 l -0.56,0.42 -21.8,-7.73 v -2.11 l 1.13,0.14 c 1.69,0.28 3.37,0.42 4.78,0.42 3.37,0 4.64,-2.25 4.64,-8.44 v -32.61 c -0.28,-10.4 -1.55,-11.81 -11.11,-12.23 z m 15.75,96.03 c -3.8,0 -7.03,-3.23 -7.03,-7.17 0,-4.08 3.09,-7.17 7.03,-7.17 4.22,0 7.31,3.09 7.31,7.17 0,4.08 -3.23,7.17 -7.31,7.17"
         style="fill:#000000;fill-opacity:1;fill-rule:nonzero;stroke:none"
         id="path117" /><path
         d="m 1917.16,1083.67 c -18.43,0 -31.08,-13.5 -31.08,-32.89 0,-19.12 13.08,-33.19 30.8,-33.19 17.7,0 31.2,14.77 31.2,34.32 0,18.54 -12.94,31.76 -30.92,31.76 z m -1.83,-3.94 c 11.8,0 20.09,-13.5 20.09,-32.75 0,-16.03 -6.33,-25.45 -16.86,-25.45 -5.48,0 -10.68,3.38 -13.64,9 -3.94,7.31 -6.19,17.16 -6.19,27.14 0,13.35 6.47,22.06 16.6,22.06"
         style="fill:#000000;fill-opacity:1;fill-rule:nonzero;stroke:none"
         id="path119" /><path
         d="m 1953.53,1019 h 29.81 v 2.11 c -7.03,0.42 -9.28,2.25 -9.28,7.31 v 39.5 c 6.75,6.33 9.85,8.02 14.49,8.02 6.87,0 10.25,-4.36 10.25,-13.63 v -29.39 c -0.28,-9.14 -1.97,-11.39 -8.85,-11.81 V 1019 h 29.24 v 2.11 c -6.89,0.7 -8.44,2.39 -8.58,9.28 v 32.2 c 0,13.21 -6.19,21.08 -16.58,21.08 -6.47,0 -10.83,-2.39 -20.39,-11.39 v 11.11 l -0.98,0.28 c -7.32,-2.67 -12.1,-4.22 -19.41,-6.33 v -2.39 c 0.98,0.43 2.25,0.57 3.8,0.57 3.93,0 5.2,-2.11 5.2,-9 v -34.86 c -0.14,-8.3 -1.69,-10.13 -8.72,-10.55 V 1019"
         style="fill:#000000;fill-opacity:1;fill-rule:nonzero;stroke:none"
         id="path121" /><path
         d="m 2084.14,1028.28 c -2.39,-1.97 -4.08,-2.67 -6.19,-2.67 -3.23,0 -4.22,1.97 -4.22,8.16 v 27.42 c 0,7.29 -0.7,11.37 -2.81,14.75 -3.09,5.06 -9.12,7.73 -17.42,7.73 -13.22,0 -23.62,-6.89 -23.62,-15.75 0,-3.23 2.67,-6.03 6.04,-6.03 3.38,0 6.33,2.8 6.33,5.89 0,0.56 -0.14,1.27 -0.28,2.25 -0.28,1.27 -0.42,2.39 -0.42,3.38 0,3.79 4.5,6.89 10.12,6.89 6.89,0 10.69,-4.08 10.69,-11.67 v -8.57 c -21.52,-8.58 -24.05,-9.84 -30.09,-15.18 -3.1,-2.82 -5.07,-7.6 -5.07,-12.24 0,-8.86 6.19,-15.05 14.77,-15.05 6.19,0 11.95,2.96 20.53,10.27 0.7,-7.45 3.23,-10.27 8.98,-10.27 4.79,0 7.74,1.69 12.66,7.04 z m -21.78,8.02 c 0,-4.22 -0.7,-5.77 -3.66,-7.46 -3.51,-1.96 -7.31,-3.09 -10.26,-3.09 -4.92,0 -8.86,4.78 -8.86,10.83 v 0.56 c 0.14,8.44 6.33,13.78 22.78,19.55 v -20.39"
         style="fill:#000000;fill-opacity:1;fill-rule:nonzero;stroke:none"
         id="path123" /><path
         d="m 2086.95,1019 h 33.19 v 2.11 c -8.86,0.42 -10.41,1.83 -10.55,9.7 v 83.94 l -0.56,0.28 c -7.17,-2.25 -12.37,-3.8 -22.36,-6.19 v -2.25 h 0.85 c 1.54,0.14 3.23,0.29 4.36,0.29 4.5,0 5.9,-1.97 5.9,-8.58 v -67.07 c -0.14,-7.59 -2.11,-9.56 -10.83,-10.12 V 1019"
         style="fill:#000000;fill-opacity:1;fill-rule:nonzero;stroke:none"
         id="path125" /><path
         d="m 2198.3,1063.16 -0.57,19.25 h -1.54 c -0.71,-1.13 -1.41,-1.55 -2.25,-1.55 -0.85,0 -2.25,0.28 -3.8,0.98 -3.23,1.13 -6.47,1.83 -9.84,1.83 -11.11,0 -19.13,-7.31 -19.13,-17.44 0,-7.85 4.5,-13.48 16.46,-20.23 l 8.15,-4.64 c 4.92,-2.81 7.31,-6.19 7.31,-10.55 0,-6.18 -4.5,-10.12 -11.67,-10.12 -9.7,0 -14.62,5.34 -17.86,19.69 h -2.25 v -21.94 h 1.83 c 0.99,1.4 1.55,1.69 3.24,1.69 1.54,0 3.23,-0.29 6.46,-1.13 3.8,-0.84 7.46,-1.41 10.27,-1.41 10.97,0 19.81,8.16 19.81,18 0,7.04 -3.37,11.68 -11.79,16.74 l -15.19,9 c -3.94,2.37 -6.05,5.75 -6.05,9.55 0,5.76 4.36,9.56 10.83,9.56 8.01,0 12.23,-4.64 15.47,-17.28 h 2.11"
         style="fill:#000000;fill-opacity:1;fill-rule:nonzero;stroke:none"
         id="path127" /><path
         d="m 2211.95,1019 h 33.19 v 2.11 c -8.86,0.42 -10.41,1.83 -10.55,9.7 v 83.94 l -0.56,0.28 c -7.17,-2.25 -12.37,-3.8 -22.36,-6.19 v -2.25 h 0.85 c 1.54,0.14 3.23,0.29 4.36,0.29 4.5,0 5.9,-1.97 5.9,-8.58 v -67.07 c -0.14,-7.59 -2.11,-9.56 -10.83,-10.12 V 1019"
         style="fill:#000000;fill-opacity:1;fill-rule:nonzero;stroke:none"
         id="path129" /><path
         d="m 2250.25,1019 h 33.33 v 2.11 c -9.28,0.7 -10.27,1.97 -10.41,12.23 v 49.91 l -0.56,0.42 -21.8,-7.73 v -2.11 l 1.13,0.14 c 1.69,0.28 3.37,0.42 4.78,0.42 3.37,0 4.64,-2.25 4.64,-8.44 v -32.61 c -0.28,-10.4 -1.55,-11.81 -11.11,-12.23 z m 15.75,96.03 c -3.8,0 -7.03,-3.23 -7.03,-7.17 0,-4.08 3.09,-7.17 7.03,-7.17 4.22,0 7.31,3.09 7.31,7.17 0,4.08 -3.23,7.17 -7.31,7.17"
         style="fill:#000000;fill-opacity:1;fill-rule:nonzero;stroke:none"
         id="path131" /><path
         d="m 2357.03,1027.16 c -1.83,-0.14 -2.67,-0.14 -3.23,-0.14 -4.92,0 -6.19,1.54 -6.19,8.01 v 79.72 l -0.7,0.28 c -6.61,-2.25 -11.39,-3.8 -20.66,-6.19 v -2.25 c 1.13,0.14 1.83,0.14 3.09,0.14 5.19,0 6.46,-1.4 6.46,-7.17 v -21.93 c -5.33,4.5 -9.13,6.04 -14.75,6.04 -16.17,0 -29.25,-15.89 -29.25,-35.84 0,-18 10.4,-30.24 26.01,-30.24 7.88,0 13.22,2.82 17.99,9.43 v -9 l 0.56,-0.43 20.67,7.32 z m -21.23,6.18 c 0,-0.98 -0.99,-2.67 -2.39,-4.21 -2.38,-2.82 -6.03,-4.22 -10.11,-4.22 -11.82,0 -19.41,11.25 -19.41,28.68 0,15.74 6.89,26.14 17.58,26.14 7.59,0 14.33,-6.6 14.33,-14.06 v -32.33"
         style="fill:#000000;fill-opacity:1;fill-rule:nonzero;stroke:none"
         id="path133" /><path
         d="m 2416.36,1042.06 c -6.75,-10.68 -12.8,-14.76 -21.78,-14.76 -8.02,0 -14.06,4.08 -18.14,12.09 -2.53,5.34 -3.52,9.84 -3.8,18.56 h 43.3 c -1.13,9.13 -2.53,13.21 -6.05,17.71 -4.22,5.06 -10.67,8.01 -17.98,8.01 -7.03,0 -13.64,-2.53 -18.99,-7.31 -6.61,-5.77 -10.4,-15.73 -10.4,-27.27 0,-19.4 10.12,-31.5 26.29,-31.5 13.36,0 23.89,8.3 29.8,23.49 z m -43.44,20.39 c 1.55,10.96 6.33,16.16 14.91,16.16 8.58,0 11.95,-3.94 13.78,-16.16 h -28.69"
         style="fill:#000000;fill-opacity:1;fill-rule:nonzero;stroke:none"
         id="path135" /><path
         d="m 2421.7,1019 h 33.75 v 2.11 c -9.42,0.28 -11.67,2.25 -11.95,10.55 v 31.64 c 0,4.48 5.91,11.51 9.84,11.51 0.85,0 2.11,-0.7 3.66,-2.11 2.11,-2.11 3.8,-2.81 5.63,-2.81 3.35,0 5.46,2.39 5.46,6.33 0,4.64 -2.93,7.45 -7.71,7.45 -5.91,0 -9.85,-3.09 -16.88,-13.22 v 12.94 l -0.7,0.28 c -7.88,-3.09 -12.94,-5.06 -20.82,-7.59 v -2.25 c 1.97,0.42 3.24,0.56 4.93,0.56 3.51,0 4.78,-2.25 4.78,-8.44 v -35.14 c -0.28,-7.31 -1.13,-8.15 -9.99,-9.7 V 1019"
         style="fill:#000000;fill-opacity:1;fill-rule:nonzero;stroke:none"
         id="path137" /><path
         d="m 2959.3,188.012 -2.4,14.617 v -0.02 l -2.2,14.121 -2.3,13.59 -2.1,13.071 -2.2,12.539 v -0.02 l -2,12.012 -2.1,11.566 -1.9,11.121 -2,10.602 v -0.031 l -1.8,10.07 -1.8,9.711 -1.8,9.18 v -0.02 l -3.3,17.141 -3.2,15.418 -3,13.789 -2.8,12.222 -2.7,10.731 -2.5,9.34 -2.4,8.008 -2.2,6.781 -2.1,5.558 -2,4.582 -2.2,3.61 -2.3,2.929 -3,2.149 -4,0.851 -3.6,-1.609 -2.5,-2.312 -1.7,-2.829 -1.3,-3.128 -1.2,-3.372 -1.1,-3.851 -1.9,-8.559 -1.9,-9.492 -1.7,-9.949 -1.7,-9.82 v 0.101 l -1.8,-9.23 v 0.211 l -1.9,-8.18 0.1,0.301 -1.1,-3.453 0.1,0.191 -1.1,-3 0.2,0.469 -1.1,-2.399 0.4,0.649 -1.2,-1.797 1.1,1.18 -1.4,-1.051 1.7,0.871 -1.3,-0.383 3.1,-0.117 -1.5,0.519 1.7,-0.98 -1.6,1.418 0.6,-0.731 -1.7,2.332 0.4,-0.671 -1.8,3.453 0.2,-0.391 -1.9,4.5 0.1,-0.25 -2,5.699 0.1,-0.179 -2.2,6.968 v -0.089 l -2.4,8.25 0.1,-0.149 -2.5,9.598 v -0.09 l -2.6,11.101 v -0.05 l -2.8,12.601 v -0.09 l -3,14.168 -3.2,15.813 v -0.051 l -3.3,17.551 v -0.051 l -1.8,9.449 -1.8,9.899 -1.8,10.351 -2,10.86 v -0.032 l -1.9,11.321 -2,11.851 -2.1,12.301 v -0.043 l -2.1,12.832 -2.2,13.34 -7,43.199 -9.9,-1.597 7,-43.204 2.2,-13.359 2.1,-12.84 2.1,-12.32 2,-11.848 2,-11.351 1.9,-10.899 1.9,-10.351 1.8,-9.899 1.7,-9.48 3.4,-17.602 3.3,-15.859 2.9,-14.219 2.9,-12.672 2.6,-11.168 2.5,-9.73 2.4,-8.371 2.3,-7.11 2.1,-5.922 2,-4.82 2.1,-3.988 2.2,-3.039 2.7,-2.41 3.8,-1.411 3.9,1.071 2.7,2.148 1.9,2.789 1.4,2.973 1.2,3.34 1.1,3.687 2,8.434 1.8,9.367 1.8,9.883 1.7,9.898 v -0.09 l 1.8,9.379 -0.1,-0.16 1.9,8.332 -0.1,-0.301 1.1,3.598 -0.1,-0.219 1.1,3.071 -0.2,-0.352 1.1,2.633 -0.3,-0.66 1.2,1.949 -0.8,-1.012 1.3,1.282 -1.4,-0.942 1.4,0.602 -3.1,-0.321 1.4,-0.3 -1.8,0.82 1.5,-1.117 -1,0.976 1.7,-2.097 -0.4,0.558 1.8,-3.078 -0.3,0.488 1.9,-4.199 -0.1,0.262 2,-5.32 v 0.207 l 2.1,-6.598 v 0.148 l 2.3,-7.879 v 0.122 l 2.4,-9.223 v 0.101 l 2.6,-10.652 v 0.051 l 2.9,-12.149 v 0.098 l 2.9,-13.719 v 0.012 l 3.2,-15.371 v 0.078 l 3.3,-17.109 1.8,-9.16 v 0.05 l 1.8,-9.668 v 0.028 l 1.8,-10.059 1.9,-10.59 v 0.039 l 2,-11.097 2,-11.551 v 0.027 l 2,-12.008 2.2,-12.539 v 0.039 l 2.2,-13.05 2.2,-13.571 v 0.032 l 2.3,-14.11 2.4,-14.64 z m -114.4,434.09 c -2.6,16.359 -18,27.527 -34.3,24.929 -16.4,-2.601 -27.6,-17.972 -25,-34.332 2.6,-16.359 18,-27.527 34.4,-24.929 16.3,2.601 27.5,17.968 24.9,34.332"
         style="fill:#000000;fill-opacity:1;fill-rule:nonzero;stroke:none"
         id="path139" /><path
         d="m 1997.4,987 c 234,-349.961 83.7,120.5 313.2,-236.398"
         style="fill:none;stroke:#ffffff;stroke-width:30;stroke-linecap:butt;stroke-linejoin:miter;stroke-miterlimit:10;stroke-dasharray:none;stroke-opacity:1"
         id="path141" /><path
         d="M 3015.6,402.672 3236.9,624"
         style="fill:none;stroke:#000000;stroke-width:9.6;stroke-linecap:butt;stroke-linejoin:miter;stroke-miterlimit:10;stroke-dasharray:none;stroke-opacity:1"
         id="path143" /><path
         d="M 3114,402.672 3335.3,624"
         style="fill:none;stroke:#000000;stroke-width:9.6;stroke-linecap:butt;stroke-linejoin:miter;stroke-miterlimit:10;stroke-dasharray:none;stroke-opacity:1"
         id="path145" /><path
         d="M 3212.4,402.672 3433.7,624"
         style="fill:none;stroke:#000000;stroke-width:9.6;stroke-linecap:butt;stroke-linejoin:miter;stroke-miterlimit:10;stroke-dasharray:none;stroke-opacity:1"
         id="path147" /><path
         d="M 279,289.801 C 204.328,368.629 191.27,473.738 178.199,582.602"
         style="fill:none;stroke:#ffffff;stroke-width:30;stroke-linecap:butt;stroke-linejoin:miter;stroke-miterlimit:10;stroke-dasharray:none;stroke-opacity:1"
         id="path149" /><path
         d="m 282.148,293.699 -13.269,15.082 0.223,-0.281 -11.922,15.68 0.191,-0.27 -10.73,16.199 0.187,-0.3 -9.449,16.722 0.141,-0.269 -8.399,17.25 0.109,-0.242 -7.421,17.621 0.089,-0.243 -6.519,18.071 0.07,-0.207 -5.777,18.527 0.066,-0.219 -4.949,18.828 0.039,-0.168 -4.348,19.129 0.032,-0.14 -3.832,19.422 0.019,-0.121 -3.371,19.652 0.024,-0.152 -4.34,31.039 -9.91,-1.379 4.359,-31.121 3.398,-19.789 3.852,-19.559 4.379,-19.281 5,-19.008 5.84,-18.742 6.609,-18.301 7.531,-17.867 8.532,-17.512 9.609,-17.012 10.91,-16.488 12.129,-15.949 13.398,-15.199 z m -67.046,233.879 -37.5,55.621 -22,-63.371"
         style="fill:#000000;fill-opacity:1;fill-rule:nonzero;stroke:none"
         id="path151" /><path
         d="m 276.148,957.898 -13.269,-15.078 0.223,0.282 -11.922,-15.68 0.191,0.277 -10.723,-16.277 0.18,0.297 -9.449,-16.731 0.141,0.262 -8.399,-17.172 0.117,0.262 -7.429,-17.699 0.089,0.238 -6.519,-18.078 0.07,0.211 -5.777,-18.453 0.066,0.222 -4.949,-18.832 0.039,0.172 -4.348,-19.133 0.032,0.141 -3.832,-19.418 0.019,0.117 -3.371,-19.719 0.024,0.153 -4.332,-30.973 -9.911,1.383 4.352,31.047 3.398,19.859 3.852,19.563 4.379,19.281 5,19.008 5.851,18.672 6.598,18.289 7.531,17.949 8.532,17.441 9.609,17 10.91,16.559 12.129,15.961 13.398,15.199 z M 209.109,724.02 171.602,668.398 149.609,731.781"
         style="fill:#000000;fill-opacity:1;fill-rule:nonzero;stroke:none"
         id="path153" /><path
         d="M 1219.2,354 1326,614.398 1432.8,354"
         style="fill:#ffffff;fill-opacity:1;fill-rule:evenodd;stroke:none"
         id="path155" /><path
         d="M 1219.2,354 1326,614.398 1432.8,354 Z"
         style="fill:none;stroke:#000000;stroke-width:9.6;stroke-linecap:butt;stroke-linejoin:miter;stroke-miterlimit:10;stroke-dasharray:none;stroke-opacity:1"
         id="path157" /><path
         d="m 1330.8,279.828 77.8,77.774"
         style="fill:none;stroke:#000000;stroke-width:9.6;stroke-linecap:butt;stroke-linejoin:miter;stroke-miterlimit:10;stroke-dasharray:none;stroke-opacity:1"
         id="path159" /><path
         d="m 1280.4,279.828 77.8,77.774"
         style="fill:none;stroke:#000000;stroke-width:9.6;stroke-linecap:butt;stroke-linejoin:miter;stroke-miterlimit:10;stroke-dasharray:none;stroke-opacity:1"
         id="path161" /><path
         d="m 1230,279.828 77.8,77.774"
         style="fill:none;stroke:#000000;stroke-width:9.6;stroke-linecap:butt;stroke-linejoin:miter;stroke-miterlimit:10;stroke-dasharray:none;stroke-opacity:1"
         id="path163" /><path
         d="m 1180.8,279.828 77.8,77.774"
         style="fill:none;stroke:#000000;stroke-width:9.6;stroke-linecap:butt;stroke-linejoin:miter;stroke-miterlimit:10;stroke-dasharray:none;stroke-opacity:1"
         id="path165" /><path
         d="m 1992.7,984.789 10.7,-15.84 10.2,-14.668 9.6,-13.551 9.1,-12.511 8.7,-11.481 8.2,-10.418 7.7,-9.449 7.4,-8.57 6.9,-7.68 6.5,-6.793 6.1,-5.976 5.9,-5.243 5.4,-4.519 5.3,-3.781 4.9,-3.098 4.7,-2.531 4.6,-1.918 4.2,-1.274 4.2,-0.789 4.2,-0.187 7.2,1.25 6.5,3.008 5.5,4.339 4.7,5.032 4.1,5.437 3.9,5.492 3.9,5.489 -0.2,-0.207 4,5.097 -0.3,-0.371 4.2,4.5 -0.5,-0.519 4.6,3.531 -1,-0.578 5.2,2.398 -1.1,-0.351 2.9,0.601 -0.8,-0.101 3,0.152 h -0.5 l 3.2,-0.223 -0.7,0.102 3.4,-0.75 -0.6,0.16 3.7,-1.27 -0.5,0.2 4,-1.879 -0.4,0.219 4.2,-2.481 -0.3,0.191 4.6,-3.152 -0.3,0.184 4.8,-3.75 -0.2,0.187 5.2,-4.57 -0.2,0.109 5.6,-5.25 -0.2,0.172 5.9,-6.082 -0.1,0.121 6.2,-6.898 -0.1,0.097 6.7,-7.796 -0.1,0.097 7,-8.699 v 0.051 l 7.6,-9.602 -0.1,0.11 7.9,-10.649 v 0.059 l 8.4,-11.617 v 0.058 l 8.9,-12.75 -0.1,0.059 9.4,-13.797 v 0.047 l 20.5,-31.047 8.3,5.508 -20.5,31.082 -9.4,13.847 -9,12.813 -8.4,11.687 -8,10.731 -7.7,9.68 -7.1,8.781 -6.7,7.898 -6.4,7.012 -6,6.219 -5.7,5.39 -5.3,4.731 -5,3.929 -4.9,3.34 -4.5,2.68 -4.5,2.09 -4.2,1.461 -4.1,0.89 -3.8,0.27 -3.8,-0.191 -3.8,-0.79 -6.2,-2.878 -5.3,-4.102 -4.7,-4.961 -4.2,-5.391 -3.9,-5.589 v 0.031 l -3.9,-5.399 0.2,0.161 -4,-5.18 0.3,0.367 -4.3,-4.578 0.6,0.508 -4.8,-3.75 1,0.609 -5.3,-2.469 1.3,0.391 -6,-1.051 1,0.071 -3.3,0.152 0.7,-0.082 -3.5,0.672 0.5,-0.121 -3.8,1.121 0.5,-0.172 -4.1,1.719 0.4,-0.2 -4.3,2.321 0.3,-0.192 -4.6,2.922 0.2,-0.148 -5,3.597 0.3,-0.211 -5.3,4.352 0.2,-0.121 -5.7,5.101 0.1,-0.152 -6,5.852 0.2,-0.129 -6.4,6.679 0.1,-0.109 -6.8,7.578 v -0.09 l -7.2,8.469 v -0.09 l -7.6,9.371 v -0.058 l -8.1,10.347 v -0.078 l -8.6,11.399 0.1,-0.071 -9.1,12.454 v -0.051 l -9.6,13.5 0.1,-0.051 -10.2,14.621 0.1,-0.043 -10.8,15.832 z m 292.2,-249.84 c 9.1,-13.847 27.7,-17.699 41.5,-8.59 13.8,9.102 17.7,27.7 8.6,41.539 -9.1,13.852 -27.7,17.692 -41.6,8.59 -13.8,-9.097 -17.6,-27.699 -8.5,-41.539"
         style="fill:#000000;fill-opacity:1;fill-rule:nonzero;stroke:none"
         id="path167" /></g></g></svg>
